<?xml version="1.0" encoding="UTF-8" standalone="no"?>
<svg
   enable-background="new 0 0 515.91 728.5"
   height="512"
   id="Layer_1"
   version="1.1"
   viewBox="0 0 512.00003 512"
   width="512"
   xml:space="preserve"
   sodipodi:docname="fiverr_icon.svg"
   inkscape:version="1.1.2 (0a00cf5339, 2022-02-04)"
   xmlns:inkscape="http://www.inkscape.org/namespaces/inkscape"
   xmlns:sodipodi="http://sodipodi.sourceforge.net/DTD/sodipodi-0.dtd"
   xmlns:xlink="http://www.w3.org/1999/xlink"
   xmlns="http://www.w3.org/2000/svg"
   xmlns:svg="http://www.w3.org/2000/svg"><sodipodi:namedview
     id="namedview37059"
     pagecolor="#ffffff"
     bordercolor="#666666"
     borderopacity="1.0"
     inkscape:pageshadow="2"
     inkscape:pageopacity="0.0"
     inkscape:pagecheckerboard="0"
     showgrid="false"
     inkscape:zoom="0.7890625"
     inkscape:cx="256"
     inkscape:cy="256"
     inkscape:window-width="1280"
     inkscape:window-height="739"
     inkscape:window-x="0"
     inkscape:window-y="29"
     inkscape:window-maximized="1"
     inkscape:current-layer="Layer_1" /><defs
     id="defs7"><filter
       color-interpolation-filters="sRGB"
       id="filter3442"><feGaussianBlur
         id="feGaussianBlur3444"
         stdDeviation="2.3432203" /></filter><linearGradient
       gradientTransform="translate(-322.85714,-811.42857)"
       gradientUnits="userSpaceOnUse"
       id="linearGradient3380"
       x1="447.5928"
       x2="413.88904"
       xlink:href="#linearGradient3374"
       y1="883.36084"
       y2="910.63495" /><linearGradient
       id="linearGradient3374"><stop
         id="stop3376"
         offset="0"
         style="stop-color:#ffffff;stop-opacity:0.43727598" /><stop
         id="stop3378"
         offset="1"
         style="stop-color:#ffffff;stop-opacity:0" /></linearGradient><filter
       color-interpolation-filters="sRGB"
       id="filter3478"><feGaussianBlur
         id="feGaussianBlur3480"
         stdDeviation="3.4723602" /></filter></defs><g
     id="g6983"
     style="fill:#959da5;fill-opacity:1;stroke:none"
     transform="translate(1.5e-5,0)"><rect
       height="512"
       id="rect2984"
       rx="64"
       ry="64"
       style="fill:#959da5;fill-opacity:1;fill-rule:nonzero;stroke:none"
       width="512"
       x="0"
       y="0" /><g
       id="g3372"
       style="fill:#959da5;fill-opacity:1;stroke:none"
       transform="matrix(15.99685,0,0,15.99685,-5338.7915,-6028.4756)"><g
         id="g3368"
         style="fill:#959da5;fill-opacity:1;stroke:none"
         transform="translate(0.44642857,-0.04464286)"><path
           d="m 355.84375,380.40625 c -0.0699,0.0404 -0.0811,0.0614 -0.0625,0.0312 -0.67912,1.14393 -0.69662,2.65289 -1,4 a 0.4982215,0.4982215 0 0 1 0,0.0312 c -0.005,0.0197 0.005,0.0429 0,0.0625 -0.14726,1.44619 -0.62399,2.92107 -0.28125,4.3125 a 0.4982215,0.4982215 0 0 1 0.0312,0.0937 c 0.003,0.0101 -0.003,0.0212 0,0.0312 0.005,0.008 -0.005,0.0237 0,0.0312 0.006,0.009 0.0253,-0.008 0.0312,0 0.0731,0.10058 0.16238,0.1759 0.21875,0.1875 0.0403,0.008 0.11021,0.004 0.25,-0.0937 0.15127,-0.1053 0.23683,-0.31627 0.28125,-0.59375 a 0.4982215,0.4982215 0 0 1 0.0625,-0.0937 0.4982215,0.4982215 0 0 1 0,-0.0312 0.4982215,0.4982215 0 0 1 0.0312,-0.0937 0.4982215,0.4982215 0 0 1 0.0312,-0.0312 c 0.59834,-2.38691 1.00327,-4.89182 0.84375,-7.34375 -0.0204,-0.12189 -0.0428,-0.2068 -0.15625,-0.34375 -0.0753,-0.0907 -0.13704,-0.14279 -0.15625,-0.15625 -0.0192,-0.0135 0.007,-0.004 -0.0625,0 a 0.4982215,0.4982215 0 0 1 -0.0312,0 c -0.0257,0.003 -0.0158,-6.1e-4 -0.0312,0 z"
           id="path3366"
           style="fill:#959da5;fill-opacity:1;stroke:none" /><path
           d="m 361.84375,381.84375 c -1.03636,0.50365 -1.56686,1.70537 -2.28125,2.6875 a 0.46681363,0.46681363 0 0 1 -0.0312,0.0937 0.46681363,0.46681363 0 0 1 -0.0312,0.0625 c -0.90569,1.60511 -2.06123,3.20738 -2.1875,5.0625 -7.1e-4,0.0105 6.5e-4,0.0208 0,0.0312 0.0138,0.27995 0.17412,0.43198 0.34375,0.46875 0.16658,0.036 0.47447,-0.0594 0.59375,-0.25 a 0.46681363,0.46681363 0 0 1 0.0312,-0.0312 0.46681363,0.46681363 0 0 1 0,-0.0312 0.46681363,0.46681363 0 0 1 0,-0.0312 c 1.646,-2.26173 2.88416,-4.92489 3.90625,-7.53125 a 0.46681363,0.46681363 0 0 1 0,-0.0312 c 0.0707,-0.17113 0.0941,-0.21493 0.0312,-0.34375 -0.0185,-0.0381 -0.21237,-0.16871 -0.3125,-0.15625 -0.0163,0.007 -0.0465,-0.008 -0.0625,0 z"
           id="path3364"
           style="fill:#959da5;fill-opacity:1;stroke:none"
           transform="translate(-0.49107143,-0.26785714)" /></g><path
         d="m 345.66985,382.2774 c -0.16726,0.0311 -0.4161,0.1809 -0.59375,0.25 -0.62832,0.23837 -0.975,0.77698 -1.125,1.40625 -0.15274,0.64382 -0.10183,1.36084 0,2.09375 0.10181,0.73145 0.24752,1.48649 0.40625,2.0625 0.13645,0.49836 0.23415,0.7408 0.28125,0.90625 l 0,0.125 c 0,0.0545 -0.0261,0.05 -0.0625,0.0937 -0.02,0.0109 0.02,0.0625 0,0.0625 -0.0453,0.0346 -0.0999,0.0625 -0.15625,0.0625 -0.11101,0.007 -0.19778,-0.0334 -0.3125,-0.0625 -0.0782,-0.0181 -0.17995,-0.0807 -0.15625,-0.0625 -0.0363,-0.0218 -0.1013,-0.0243 -0.125,-0.0625 0,0.0146 0.0219,0.0143 0,-0.0312 -0.0254,-0.0473 -0.0537,-0.1664 -0.0937,-0.25 -0.0891,-0.18946 -0.15908,-0.40895 -0.28125,-0.6875 -0.24381,-0.55472 -0.55754,-1.23609 -0.90625,-1.875 -0.34999,-0.64145 -0.76223,-1.22354 -1.21875,-1.625 -0.22817,-0.20054 -0.50982,-0.40155 -0.78125,-0.46875 -0.26199,-0.0655 -0.57287,-0.01 -0.84375,0.125 -0.69997,0.38836 -1.09619,1.02422 -1.25,1.6875 -0.15456,0.67346 -0.0815,1.44899 0.0312,2.125 0.11454,0.67454 0.29189,1.23077 0.40625,1.6875 0.049,0.19254 0.1087,0.37235 0.125,0.46875 0,0.0955 -0.0389,0.3448 -0.0625,0.4375 -0.11818,0.40928 -0.40559,1.09375 -0.40625,1.09375 0,0 -5.45294,14.48293 6.25,13.46875 0.0964,-0.007 0.31535,-0.0625 0.40625,-0.0625 2.29827,-0.46272 4.47308,-1.15769 6.40625,-1.9375 0.3798,-0.182 0.87805,-0.36282 1.4375,-0.625 1.11885,-0.52418 2.52451,-1.19587 3.875,-1.9375 1.35103,-0.74219 2.60454,-1.533 3.5625,-2.375 0.9596,-0.84327 1.65997,-1.76731 1.53125,-2.6875 -0.20364,-1.48345 -1.18879,-2.58587 -2.5,-3.4375 -1.31613,-0.85473 -2.95728,-1.44464 -4.59375,-1.875 -1.63576,-0.43018 -3.2241,-0.78002 -4.4375,-0.96875 -0.60652,-0.0945 -1.1749,-0.122 -1.53125,-0.1875 -0.10544,-0.0181 -0.16175,-0.0443 -0.21875,-0.0625 -0.0307,-0.004 -0.0334,-0.0131 -0.0625,-0.0312 -0.0363,-0.0218 -0.1031,-0.0243 -0.125,-0.0625 -0.02,-0.0363 0,-0.0832 0,-0.125 0,-0.0163 -1.7e-4,-0.0407 0,-0.0625 l 0,-0.90625 c -0.02,-0.748 -0.064,-1.73553 -0.21875,-2.65625 -0.15637,-0.92455 -0.39754,-1.80879 -0.90625,-2.40625 -0.30235,-0.35545 -0.73038,-0.5887 -1.25,-0.625 -0.15636,-0.0182 -0.3311,-0.0309 -0.5,0 z"
         id="path3302"
         style="fill:#959da5;fill-opacity:1;stroke:none" /></g></g><g
     id="g24732"
     style="fill:#ffffff;fill-opacity:1"
     transform="matrix(2.3244229,0,0,2.3244229,-1572.0456,-1430.0838)"><path
       d="m 852.39518,659.91241 c 0,10.14448 -8.22372,18.36821 -18.3682,18.36821 -10.14448,0 -18.36821,-8.22373 -18.36821,-18.36821 0,-10.14447 8.22373,-18.3682 18.36821,-18.3682 10.14448,0 18.3682,8.22373 18.3682,18.3682 z"
       id="path24730"
       style="fill:#ffffff;fill-opacity:1;fill-rule:nonzero;stroke:none"
       transform="matrix(1.0601504,0,0,1.0601504,-51.824319,-40.798836)" /><path
       d="m 707.68141,811.28587 c -0.10457,-0.275 -0.1741,-7.0234 -0.1545,-14.7234 l 0.0356,-14.2914 7.7133,0 7.65267,0 c -0.14221,-20.4724 0.1422,-41.2362 0,-61.7086 l -8.36597,-0.056 -8,-0.056 -0.27673,-14.6938 -0.27674,-14.6938 8.40442,0 8.51502,0 0,-8.75 c 0,-20.49303 12.22817,-32.8873 33.40345,-38.1922 12.97622,-2.6485 20.0107,-1.85869 33.23058,-1.5578 l 0.27539,15.75 0.2754,15.75 -8.7754,0 c -13.53842,0 -17.49581,3.2762 -17.52867,12.7484 l 0,4.25 c 29.66667,0 58.58665,0 88.25332,0 0,30.33333 0,60.87647 0,91.2098 l 14.7484,0 c 0,0 -0.0436,-0.089 0,2.0402 0.23206,11.3372 -0.1088,13.41156 0,26.9746 -0.32554,0.3256 -16.34894,-0.0492 -35.29714,0 l -34.45126,0 0,-14.4192 0,-14.5956 c 5,0 10,0 15,0 0,-20.61127 0,-41.19438 0,-61.80565 -13.94014,0.16217 -35.81498,0.081 -48.25332,0 -0.95049,23.36676 -0.55243,33.90017 0,61.80565 5.58378,0.2119 11.16859,-0.18439 16.75332,0 l 0.27529,14.7909 0.27528,14.2239 -36.62078,0 c -20.14143,0 -36.70635,0.275 -36.81093,0 z"
       id="path24702"
       style="fill:#ffffff;fill-opacity:1" /></g></svg>
