<?xml version="1.0" encoding="UTF-8" standalone="no"?>
<!-- Created with Inkscape (http://www.inkscape.org/) -->

<svg
   width="32mm"
   height="32mm"
   viewBox="0 0 32 32"
   version="1.1"
   id="svg5"
   inkscape:version="1.1.2 (0a00cf5339, 2022-02-04)"
   sodipodi:docname="logo_r.svg"
   xmlns:inkscape="http://www.inkscape.org/namespaces/inkscape"
   xmlns:sodipodi="http://sodipodi.sourceforge.net/DTD/sodipodi-0.dtd"
   xmlns="http://www.w3.org/2000/svg"
   xmlns:svg="http://www.w3.org/2000/svg">
  <sodipodi:namedview
     id="namedview7"
     pagecolor="#ffffff"
     bordercolor="#666666"
     borderopacity="1.0"
     inkscape:pageshadow="2"
     inkscape:pageopacity="0.0"
     inkscape:pagecheckerboard="0"
     inkscape:document-units="px"
     showgrid="false"
     width="32mm"
     inkscape:zoom="2.8321571"
     inkscape:cx="62.143445"
     inkscape:cy="66.733586"
     inkscape:window-width="1280"
     inkscape:window-height="739"
     inkscape:window-x="0"
     inkscape:window-y="29"
     inkscape:window-maximized="1"
     inkscape:current-layer="layer1" />
  <defs
     id="defs2" />
  <g
     inkscape:label="Layer 1"
     inkscape:groupmode="layer"
     id="layer1">
    <path
       id="path31"
       style="fill:#ffffff;stroke-width:1.15827"
       d="M 60.507812 0.060546875 A 60.494451 60.421234 0 0 0 0.013671875 60.480469 A 60.494451 60.421234 0 0 0 60.507812 120.90234 A 60.494451 60.421234 0 0 0 121.00195 60.480469 A 60.494451 60.421234 0 0 0 60.507812 0.060546875 z M 60.404297 8.4042969 A 52.191447 52.512797 0 0 1 112.5957 60.917969 A 52.191447 52.512797 0 0 1 60.404297 113.42969 A 52.191447 52.512797 0 0 1 8.2128906 60.917969 A 52.191447 52.512797 0 0 1 60.404297 8.4042969 z "
       transform="scale(0.26458333)" />
    <text
       xml:space="preserve"
       style="font-style:normal;font-variant:normal;font-weight:normal;font-stretch:normal;font-size:30.824px;line-height:1.25;font-family:'Liberation Mono';-inkscape-font-specification:'Liberation Mono';fill:#ffffff;fill-opacity:1;stroke:none;stroke-width:0.770601"
       x="5.2725139"
       y="27.30299"
       id="text1883"
       transform="scale(1.0815951,0.92456039)"><tspan
         sodipodi:role="line"
         id="tspan1881"
         style="font-style:normal;font-variant:normal;font-weight:normal;font-stretch:normal;font-family:'Liberation Mono';-inkscape-font-specification:'Liberation Mono';stroke-width:0.770601;fill:#ffffff"
         x="5.2725139"
         y="27.30299">R</tspan></text>
  </g>
</svg>
